<svg
  xmlns="http://www.w3.org/2000/svg"
  width="48"
  height="32"
  viewBox="0 0 48 32"
>
  <rect width="46.6" height="30.6" x=".7" y=".7" rx="3.301" fill="#fff" />
  <path
    d="M43.999 1.4A2.604 2.604 0 0 1 46.6 4.001V28a2.604 2.604 0 0 1-2.601 2.601H4A2.604 2.604 0 0 1 1.4 27.999V4A2.604 2.604 0 0 1 4.001 1.4zm0-1.4H4A4 4 0 0 0 0 4.001V28A4 4 0 0 0 4.001 32H44A4 4 0 0 0 48 27.999V4A4 4 0 0 0 43.999 0"
    fill="#ddd"
  />
  <path
    d="M39.321 10.833h2.598v10.286h-2.598zM10.977 10.54a18.3 18.3 0 0 0-5.058.87v9.709h2.692v-7.895a6.7 6.7 0 0 1 2.366-.4 2.178 2.178 0 0 1 2.469 2.417v5.877h2.656v-5.877c0-3.174-1.472-4.701-5.125-4.701M38.581 10.833H35.37l-2.436 3.011-1.336-1.68a3.66 3.66 0 0 0-2.83-1.331h-1.58l4.062 5.093-4.2 5.193h3.185l2.6-3.205 1.498 1.878a3.66 3.66 0 0 0 2.825 1.327h1.562l-4.2-5.28Z"
    fill="#253776"
  />
  <path
    d="M27.527 19.144 25.77 17.72a3.87 3.87 0 0 1-3.054 1.427 3.06 3.06 0 0 1-2.82-1.78l7.9-1.392a5.6 5.6 0 0 0-.43-2.167 5.3 5.3 0 0 0-4.93-3.287 5.194 5.194 0 0 0-5.361 5.454 5.31 5.31 0 0 0 5.64 5.455 5.99 5.99 0 0 0 4.81-2.286m-5.092-6.398a2.63 2.63 0 0 1 2.544 1.483l-5.302.937a2.73 2.73 0 0 1 2.758-2.42"
    fill="#253776"
  />
</svg>
