<svg
  xmlns="http://www.w3.org/2000/svg"
  width="48"
  height="32"
  viewBox="0 0 48 32"
>
  <rect width="48" height="32" fill="#eedc00" rx="4" />
  <path
    fill="#0047bb"
    d="M20.35 17.07c0 .49.12.91.65.91a.62.62 0 0 0 .7-.54H23a1.35 1.35 0 0 1-.71 1 2.2 2.2 0 0 1-1.19.29c-1.51 0-2.11-.64-2.11-2.12a1.84 1.84 0 0 1 2-1.86c1.53 0 2 .87 2 2.27zm1.35-.76a1 1 0 0 0-.17-.56.53.53 0 0 0-.5-.24c-.49 0-.61.37-.65.8zM2.46 18.67v-5.41H5c1.33 0 2.2.43 2.2 1.74s-.92 1.74-2.2 1.74H4v1.93zm2.28-3c.59 0 .84-.29.84-.69s-.25-.67-.84-.69H4v1.38h.78m6.85 1.1a1.94 1.94 0 0 1-2.19 2 2 2 0 1 1 0-4 1.94 1.94 0 0 1 2.15 2.02zM9.4 18c.6 0 .72-.64.72-1.17s-.12-1.21-.72-1.21-.73.64-.73 1.17S8.8 18 9.4 18m4.67-1.89h1.35c-.06-1-.88-1.27-1.77-1.27s-1.75.21-1.75 1.16c0 1.36 2.23 1 2.23 1.63 0 .24-.2.35-.48.35a.47.47 0 0 1-.33-.17.41.41 0 0 1-.1-.34h-1.35c0 1.15.89 1.33 1.81 1.33s1.8-.25 1.8-1.25a1 1 0 0 0-.75-1c-.9-.28-1.47-.26-1.47-.54a.3.3 0 0 1 .33-.34.46.46 0 0 1 .39.14.43.43 0 0 1 .09.31m2.35-1.16h-.73v.9h.73v1.68c-.07 1.16.51 1.29 1.48 1.29a4 4 0 0 0 .77-.07v-.85a5 5 0 0 1-.55 0c-.33 0-.27-.48-.27-.58v-1.52h.83v-.9h-.83V13.8l-1.43.54v.57m7.25 0h.71v3.77h-.71zm-.07-1.65h.85V14h-.85v-.77m1.93 1.65h-.65v.53h.65v2.4c0 .51 0 .52.17.7a.66.66 0 0 0 .42.25 2.6 2.6 0 0 0 .48 0c.17 0 .32 0 .49-.05v-.55a1.6 1.6 0 0 1-.38.05.41.41 0 0 1-.46-.4v-2.44h.87v-.53h-.87v-1l-.72.23v.8m4.4 1.44c0-.65 0-1-.8-1a.65.65 0 0 0-.71.6h-.75c0-.83.68-1.12 1.43-1.12s1.54.21 1.54 1.21v2.6h-.48c-.07 0-.19 0-.2-.05s0-.34 0-.51a1.23 1.23 0 0 1-1.18.68c-.65 0-1.32-.34-1.32-1.08 0-1.06.95-1.37 1.84-1.37zm-.72.5c-.43 0-1 .18-1 .73a.67.67 0 0 0 .74.7c.85 0 1-.73 1-1.43h-.72m2.15-3.59v5.42h.71v-5.42zM33 14.87h.72v3.77H33zm-.07-1.65h.85V14h-.85v-.77m3.92 3.09c0-.65 0-1-.8-1a.65.65 0 0 0-.71.6h-.75c0-.83.68-1.12 1.43-1.12s1.5.2 1.5 1.2v2.6h-.48c-.07 0-.2 0-.2-.05v-.51a1.21 1.21 0 0 1-1.17.68c-.66 0-1.32-.34-1.32-1.08 0-1.06.94-1.37 1.84-1.37zm-.72.5c-.44 0-1 .18-1 .73a.67.67 0 0 0 .75.7c.84 0 1-.73 1-1.43h-.72M39 15.43v-.56h-.7v3.77h.7v-2.05c0-.73.19-.9.3-1a.94.94 0 0 1 .69-.28c.6 0 .87.34.87 1v2.37h.71V16a1.39 1.39 0 0 0-2.57-.57m3.91 1.46c0 .66.22 1.35 1 1.35a.79.79 0 0 0 .92-.77h.75a1.5 1.5 0 0 1-1.68 1.29c-1.21 0-1.69-.86-1.69-2s.56-2 1.75-2a1.59 1.59 0 0 1 1.67 1.78v.35zm1.91-.49c0-.63-.27-1.12-1-1.12a1 1 0 0 0-1 1.12h1.91"
  />
</svg>
