<svg
  xmlns="http://www.w3.org/2000/svg"
  width="48"
  height="32"
  viewBox="0 0 48 32"
>
  <g fill="none">
    <rect width="48" height="32" fill="#F5E11D" rx="3" />
    <path
      fill="#0356A2"
      d="M6.796 13.414c.238-.092.492-.138.748-.134.454-.02.896.147 1.225.46.335.346.532.802.555 1.283.036.418-.003.84-.115 1.245a3.4 3.4 0 0 1-.46 1.149 2.34 2.34 0 0 1-.918.919c-.315.187-.67.299-1.035.325v-.765q.198-.06.384-.153a1.85 1.85 0 0 0 .632-.69 4.2 4.2 0 0 0 .402-.996c.087-.337.12-.687.095-1.034a1.4 1.4 0 0 0-.344-.823 1.07 1.07 0 0 0-.785-.307q-.196 0-.384.058zM3.407 20.5l1.321-5.802c.04-.23.077-.44.115-.67.02-.23.04-.441.058-.671h.92l-.078.785c.249-.264.54-.484.862-.651a.8.8 0 0 1 .191-.077v.537a2 2 0 0 0-.402.191 1.94 1.94 0 0 0-.613.728 4.1 4.1 0 0 0-.401 1.072 3.4 3.4 0 0 0-.096 1.015 1.014 1.014 0 0 0 1.072.995q.224.002.44-.057v.766h-.172a2 2 0 0 1-.919-.21 2 2 0 0 1-.67-.614L4.422 20.5H3.408zm27.96-6.32q-.164.006-.325.039v-.747a1 1 0 0 0 .134-.057c.281-.133.59-.2.9-.192.44-.02.868.139 1.187.44.315.347.493.796.499 1.264a3.82 3.82 0 0 1-.594 2.624 2.22 2.22 0 0 1-1.935 1.092c-.056 0-.134-.02-.19-.02v-.995a.7.7 0 0 0 .325-.154c.19-.162.34-.365.44-.594q.215-.46.326-.957c.07-.288.095-.585.077-.88a.96.96 0 0 0-.249-.633.8.8 0 0 0-.594-.23m-.325.039c-.341.13-.621.382-.785.708a2.8 2.8 0 0 0-.364 1.724 1.2 1.2 0 0 0 .287.746c.16.18.392.278.632.27a1 1 0 0 0 .23-.04v.996a1.8 1.8 0 0 1-.747-.21 1.5 1.5 0 0 1-.631-.65L29.05 20.5h-1.59l1.226-5.553c.153-.709.25-1.245.288-1.59h1.436l-.038.632q.307-.295.67-.517zm6.3 1.857a.24.24 0 0 0-.114-.019h-.172a2.4 2.4 0 0 0-.671.077v-.843c.21-.019.46-.019.709-.019h.44q.057-.217.077-.44a1.2 1.2 0 0 0 .019-.25.45.45 0 0 0-.192-.343.7.7 0 0 0-.44-.116.8.8 0 0 0-.517.154c-.039.038-.076.057-.096.115v-1.073q.305-.05.613-.04a2.85 2.85 0 0 1 1.532.327c.34.22.555.59.575.996q.03.21 0 .421c-.02.134-.058.306-.097.48l-.402 1.761c-.057.21-.076.421-.115.652-.019.229-.019.44-.019.67h-1.455v-.364c0-.134.019-.25.019-.383a1.9 1.9 0 0 1-.651.594v-.806c.175-.09.332-.213.46-.363a2.5 2.5 0 0 0 .497-1.188m-.957.058a1.6 1.6 0 0 0-.536.249.79.79 0 0 0-.422.785.5.5 0 0 0 .173.403.54.54 0 0 0 .403.134.86.86 0 0 0 .382-.077v.805l-.039.019a1.7 1.7 0 0 1-.842.21c-.405.015-.8-.121-1.11-.382a1.42 1.42 0 0 1-.48-.997 1.5 1.5 0 0 1 .728-1.494 3.8 3.8 0 0 1 1.743-.497zm0-2.815v1.073a1 1 0 0 0-.153.383H34.72c.03-.452.271-.864.65-1.111.312-.184.657-.3 1.015-.345M39.373 20.481l1.264-1.915-.92-5.247h1.571l.44 3.601 2.03-3.601h1.495l-3.257 5.458-.938 1.704zM12.331 13.855q-.196 0-.382.057v-.67q.248-.026.497-.02a2.27 2.27 0 0 1 1.456.441c.378.315.607.773.632 1.264.039.457-.007.918-.135 1.36a3.9 3.9 0 0 1-.517 1.244 2.3 2.3 0 0 1-.957.862 2.8 2.8 0 0 1-.977.249v-.67q.226-.052.421-.171c.249-.157.453-.375.594-.632.194-.341.337-.71.422-1.092.089-.35.128-.712.115-1.073a1.29 1.29 0 0 0-.345-.861 1.1 1.1 0 0 0-.824-.288m-.382.057a2 2 0 0 0-.422.173c-.252.19-.46.432-.613.709-.19.327-.325.682-.402 1.053a3.8 3.8 0 0 0-.096 1.091c.01.297.133.578.345.786.226.199.521.301.822.287q.185-.003.365-.038v.67c-.135 0-.288.019-.44.019-.535.03-1.061-.14-1.475-.478A1.74 1.74 0 0 1 9.4 16.88a3.7 3.7 0 0 1 .152-1.416c.116-.462.318-.897.594-1.284.246-.319.57-.57.94-.728.277-.104.567-.174.861-.21zm3.638 2.95a.7.7 0 0 0-.058.248.33.33 0 0 0 0 .192.56.56 0 0 0 .25.46c.2.122.436.176.67.153.329.018.655-.062.938-.23a.69.69 0 0 0 .307-.632.53.53 0 0 0-.212-.402 3.8 3.8 0 0 0-.823-.46 4.2 4.2 0 0 1-1.13-.69 1 1 0 0 1-.363-.708 1.26 1.26 0 0 1 .498-1.13c.455-.312 1-.467 1.552-.44.456-.028.911.065 1.32.268a.94.94 0 0 1 .499.785v.191q0 .145-.02.288h-.938v-.288a.55.55 0 0 0-.249-.44 1.1 1.1 0 0 0-.632-.153 1.2 1.2 0 0 0-.747.211.58.58 0 0 0-.249.555.52.52 0 0 0 .212.364q.39.294.842.478c.44.176.847.421 1.207.728.18.201.289.457.306.727.043.492-.194.965-.613 1.226a2.9 2.9 0 0 1-1.762.498c-.472.016-.94-.09-1.36-.306a1.12 1.12 0 0 1-.536-.882.8.8 0 0 1 0-.287c.02-.096.039-.21.058-.325h1.034m6.3 1.723q-.286.03-.517.057c-.153 0-.306.02-.44.02a1.4 1.4 0 0 1-.842-.191.72.72 0 0 1-.307-.614q-.016-.24.02-.479c.018-.23.076-.459.114-.708l.594-2.605h-.957l.172-.67h.938l.268-1.187 1.015-.25-.306 1.437h1.13l-.153.67h-1.13l-.575 2.72q-.072.225-.095.46a.6.6 0 0 0-.02.248.33.33 0 0 0 .153.307c.15.09.325.13.499.115a2 2 0 0 0 .306-.039q.156-.015.307-.057zm3.314-3.217h1.302c.02-.173.039-.306.039-.402a.5.5 0 0 0 0-.25.86.86 0 0 0-.326-.65c-.24-.17-.529-.257-.823-.249-.058 0-.134.02-.192.02v-.632h.211c.538-.033 1.073.1 1.532.382.36.298.57.74.575 1.207q.03.307 0 .613a3 3 0 0 1-.096.67H25.2zm0 3.255v-.785q.171-.058.325-.153c.237-.16.412-.397.499-.67h1.13c-.121.499-.43.931-.863 1.207-.327.218-.7.356-1.091.401m-1.34-3.255h1.34v.709h-1.513q-.075.214-.095.44a3 3 0 0 0-.02.383c.018.283.141.55.345.746.24.188.538.283.842.27q.228.004.44-.078v.785a5 5 0 0 1-.555.039 2.27 2.27 0 0 1-1.455-.44 1.72 1.72 0 0 1-.593-1.246c-.037-.463.009-.93.134-1.378.107-.458.28-.897.517-1.303.222-.344.533-.621.9-.804.326-.169.685-.266 1.053-.287v.632c-.3.027-.579.163-.785.383-.304.313-.5.716-.556 1.149"
    />
  </g>
</svg>
